<?xml version="1.0" encoding="UTF-8"?>
<svg id="_Слой_2" data-name="Слой 2" xmlns="http://www.w3.org/2000/svg" viewBox="0 0 134.1 61.27">
  <defs>
    <style>
      .cls-1 {
        fill: #1f7a76;
      }

      .cls-1, .cls-2 {
        stroke-width: 0px;
      }

      .cls-2 {
        fill: #207a77;
      }
    </style>
  </defs>
  <g id="_Слой_2-2" data-name="Слой 2">
    <g>
      <path class="cls-1" d="m119.76,16.11l-1.77,3.87h3.46l-1.7-3.87Zm0,0l-1.77,3.87h3.46l-1.7-3.87Zm13-5.56h-44.97V0l-1.37,3.7-2.53,6.85H1.35c-.7,0-1.27.57-1.27,1.27v14.82h76.84v11.8l1.37-3.75,2.94-8.05h52.8v-14.82c0-.7-.57-1.27-1.27-1.27ZM15.86,14.6h-2.62v9.78h-1.75v-9.78h-2.63v-1.64h7v1.64Zm15.64,0h-4.56v2.72h4.42v1.65h-4.42v3.77h4.56v1.64h-6.31v-11.43h6.31v1.64Zm15.92,9.78l-2.5-4.37-2.61,4.37h-1.96l3.61-5.96-3.16-5.46h1.96l2.23,3.87,2.27-3.87h1.96l-3.29,5.46,3.44,5.96h-1.95Zm19.68,0h-1.75v-5.32h-4.9v5.32h-1.75v-11.43h1.75v4.46h4.9v-4.46h1.75v11.43Zm19.98,0h-1.74v-11.07l-4.86,13.33-2.85,7.81V12.96h1.75v11.84l5.26-14.25,2.44-6.61v20.44Zm16.7,0l-4.08-5.07-.34.34v4.72h-1.75v-11.43h1.75v4.56l4.42-4.56h2.3l-5.16,5.17,5.19,6.25h-2.33Zm19.57,0l-1.19-2.75h-4.89l-1.25,2.75h-1.89l5.69-12.1,5.42,12.1h-1.89Zm-5.36-4.4h3.46l-1.7-3.87-1.77,3.87Zm1.77-3.87l-1.77,3.87h3.46l-1.7-3.87Zm0,0l-1.77,3.87h3.46l-1.7-3.87Z"/>
      <g>
        <path class="cls-2" d="m67.8,37.71l-3.46,7.82-3.96-7.82h-2.81l5.45,10.58-2.04,4.5h2.4l6.81-15.08h-2.39Z"/>
        <path class="cls-2" d="m22.29,46.03c-.46-.65-1.11-1.1-1.94-1.36.4-.3.71-.68.93-1.14.23-.46.34-1,.34-1.62,0-.71-.14-1.35-.43-1.92-.29-.57-.73-1.07-1.32-1.49-.42-.29-.9-.49-1.43-.61-.53-.12-1.26-.18-2.19-.18h-2.29v15.08h3.46c1.12,0,1.95-.08,2.5-.25s1.06-.43,1.53-.81c.49-.41.87-.91,1.13-1.51.26-.6.39-1.28.39-2.05s-.23-1.5-.69-2.15Zm-6-6.15h.79c.8,0,1.39.18,1.78.55.39.37.59.89.59,1.56-.01.69-.22,1.23-.61,1.64-.39.4-1.01.59-1.85.57h-.7v-4.32Zm3.69,10.15c-.49.4-1.25.6-2.29.6h-1.41v-4.52h1.45c1,0,1.74.2,2.24.6.49.4.74.96.74,1.68s-.24,1.24-.73,1.64Z"/>
        <path class="cls-2" d="m39.48,44.53l6.81-6.83h-3.03l-5.83,6.01v-6.01h-2.31v15.08h2.31v-6.24l.45-.45,5.38,6.69h3.07l-6.85-8.25Z"/>
        <path class="cls-2" d="m89.98,39.56c.77,0,1.49.14,2.17.43s1.32.7,1.93,1.24v-2.71c-.58-.35-1.19-.62-1.84-.8-.65-.19-1.38-.28-2.19-.28-1.1,0-2.11.15-3,.46-.9.31-1.71.81-2.45,1.51-.8.75-1.41,1.63-1.81,2.64-.4,1.01-.61,2.1-.61,3.26-.02,1.11.16,2.14.55,3.08.38.94,1.01,1.81,1.87,2.61.74.71,1.56,1.23,2.48,1.58.91.34,1.87.51,2.86.51.7,0,1.4-.1,2.12-.29.72-.19,1.39-.47,2.03-.85v-2.73c-.59.55-1.23.99-1.93,1.29-.7.31-1.41.46-2.15.44-1.61,0-2.94-.54-3.97-1.62-1.03-1.08-1.55-2.42-1.55-4.04-.01-1.66.49-3.03,1.52-4.12,1.02-1.09,2.35-1.63,3.99-1.63Z"/>
        <path class="cls-2" d="m112.98,36.82l-7.51,15.96h2.49l1.65-3.63h6.46l1.58,3.63h2.49l-7.15-15.96Zm-2.42,10.15l2.33-5.11,2.24,5.11h-4.57Z"/>
      </g>
      <polygon class="cls-2" points="134.1 61.27 0 61.27 0 28.64 11.33 28.64 11.33 30.15 1.51 30.15 1.51 59.76 132.59 59.76 132.59 30.15 123.47 30.15 123.47 28.64 134.1 28.64 134.1 61.27"/>
    </g>
  </g>
</svg>