<svg width="21px" height="21px" xmlns="http://www.w3.org/2000/svg" viewBox="0 0 20.87 20.91">
  <g>
    <g>
      <path fill="currentColor"
        d="m6.17,17.16c-1.03,0-1.88.84-1.88,1.88s.84,1.88,1.88,1.88,1.88-.84,1.88-1.88-.84-1.88-1.88-1.88Zm.7,1.88c0,.38-.31.7-.7.7s-.7-.31-.7-.7.31-.7.7-.7.7.31.7.7Z" />
      <path fill="currentColor"
        d="m14.74,17.16c-1.03,0-1.88.84-1.88,1.88s.84,1.88,1.88,1.88,1.88-.84,1.88-1.88-.84-1.88-1.88-1.88Zm.7,1.88c0,.38-.31.7-.7.7s-.7-.31-.7-.7.31-.7.7-.7.7.31.7.7Z" />
      <path fill="currentColor"
        d="m3.95,1.99c-.16-1.13-1.14-1.99-2.28-1.99H0v1.18h1.67c.56,0,1.04.42,1.12.97l1.73,12.48c.16,1.13,1.14,1.99,2.28,1.99h10.68v-1.18H6.8c-.56,0-1.04-.42-1.12-.97l-.18-1.28h13.42l1.95-9.76H4.15l-.2-1.44Zm15.49,2.62l-1.48,7.4H5.34l-1.03-7.4h15.12Z" />
    </g>
  </g>
</svg>
