<svg width="21px" height="19px" xmlns="http://www.w3.org/2000/svg" viewBox="0 0 20.63 18.91">
  <g>
    <path fill="currentColor" d="m15.18,0c-2.01,0-3.92,1.36-4.86,3.43-.94-2.07-2.86-3.43-4.86-3.43C2.44,0,0,2.44,0,5.45c0,5.8,8.31,12.03,9.97,13.22l.34.24.34-.24c1.67-1.19,9.97-7.41,9.97-13.22,0-3-2.44-5.45-5.45-5.45Zm-4.28,6.24v-.16c0-2.57,2.04-4.92,4.28-4.92,2.36,0,4.28,1.92,4.28,4.28,0,3.94-4.91,8.92-9.15,12.02C6.07,14.37,1.17,9.39,1.17,5.45,1.17,3.09,3.09,1.17,5.45,1.17s4.28,2.34,4.28,4.92v.16h1.17Z"/>
  </g>
</svg>
