<?xml version="1.0" encoding="UTF-8"?>
<svg xmlns="http://www.w3.org/2000/svg" viewBox="0 0 17.36 20.76">
  <g>
    <g>
      <path
        d="m8.68,0C3.89,0,0,3.89,0,8.68c0,2.48,2.02,6.25,5.67,10.6.77.92,1.92,1.49,3,1.49s2.23-.57,3-1.49c3.66-4.35,5.67-8.12,5.67-10.6C17.36,3.89,13.46,0,8.68,0Zm7.51,8.68c0,2.17-1.97,5.76-5.4,9.84-.55.65-1.37,1.07-2.11,1.07s-1.56-.42-2.11-1.07C3.14,14.44,1.17,10.85,1.17,8.68,1.17,4.54,4.54,1.17,8.68,1.17s7.51,3.37,7.51,7.51Z" />
      <path
        d="m8.68,5.11c-1.97,0-3.57,1.6-3.57,3.57s1.6,3.57,3.57,3.57,3.57-1.6,3.57-3.57-1.6-3.57-3.57-3.57Zm2.4,3.57c0,1.32-1.07,2.4-2.4,2.4s-2.4-1.07-2.4-2.4,1.07-2.4,2.4-2.4,2.4,1.07,2.4,2.4Z" />
    </g>
  </g>
</svg>
