<svg width="16px" height="21px" xmlns="http://www.w3.org/2000/svg" viewBox="0 0 15.35 20.47">
  <g>
    <g>
      <path fill="currentColor"
        d="m7.68,10.23c2.83,0,5.12-2.29,5.12-5.12S10.5,0,7.68,0,2.56,2.29,2.56,5.12s2.3,5.12,5.12,5.12Zm0-8.95c2.12,0,3.84,1.73,3.84,3.84s-1.71,3.84-3.84,3.84-3.84-1.73-3.84-3.84,1.73-3.84,3.84-3.84Z" />
      <path fill="currentColor"
        d="m11.51,12.79H3.84c-2.11,0-3.84,1.73-3.84,3.84v3.84h1.28v-3.84c0-1.41,1.15-2.56,2.56-2.56h7.68c1.42,0,2.56,1.15,2.56,2.56v3.84h1.28v-3.84c0-2.11-1.71-3.84-3.84-3.84Z" />
    </g>
  </g>
</svg>
