<svg width="23px" height="23px" xmlns="http://www.w3.org/2000/svg" viewBox="0 0 23.03 23.05">
  <g>
    <path fill="currentColor"
      d="m22.61,20.56l-4.55-4.55-.25-.25c1.22-1.68,1.95-3.73,1.98-5.86-.06-4.15-2.61-7.82-6.49-9.3C9.47-.85,4.89.38,2.29,3.55-.34,6.76-.78,11.37,1.37,14.97c2.15,3.59,6.33,5.39,10.41,4.66,1.49-.27,2.84-.89,3.99-1.76,1.37,1.37,2.75,2.75,4.12,4.12.22.22.43.43.65.65.54.54,1.53.58,2.07,0,.54-.58.58-1.49,0-2.07ZM4.43,14.27c-1.82-2.25-2.01-5.49-.54-7.96,1.47-2.45,4.4-3.81,7.22-3.29,3.33.61,5.71,3.52,5.75,6.88-.04,2.88-1.81,5.56-4.55,6.55-2.81,1.02-6,.15-7.89-2.18Z" />
  </g>
</svg>
