<svg xmlns="http://www.w3.org/2000/svg" viewBox="0 0 20.67 18.02">
  <g>
    <path
      d="m20.29.26h0c-.3-.25-.71-.33-1.08-.19L.68,7.12c-.55.22-.82.85-.6,1.4.11.29.35.52.65.62l3.91,1.31,2.13,6.09c.1.27.29.49.55.62.26.13.56.14.83.05.13-.04.24-.11.34-.2l2.98-2.51,4.15,3.28c.19.15.42.23.66.23.05,0,.09,0,.14,0,.29-.04.54-.18.72-.41.1-.13.17-.27.2-.43l3.31-15.88c.08-.38-.06-.78-.35-1.04Zm-9.66,13.59l-2.25,1.9.7-3.13,1.55,1.23Zm-2.37-2.3c-.05.16-.18.72-.66,2.9-.07.3-.13.58-.18.8l-1.73-4.96,7.43-3.97c-3.85,4.08-4.65,4.95-4.82,5.16h0s-.02.01-.03.03c-.02.02-.02.03-.02.04h0Zm-7.25-3.25l.05-.2L19.62,1.06s0,.01,0,.01l-3.31,15.88.16.03-.2-.02-6.75-5.33,6.57-6.94c.2-.21.19-.54-.02-.74-.16-.16-.41-.19-.61-.08l-10.47,5.59-3.94-1.32-.05.15h0Z" />
  </g>
</svg>
