<svg xmlns="http://www.w3.org/2000/svg" viewBox="0 0 22.2 22.18">
  <g>
    <g>
      <path
        d="m16.97,1.68c-1.76-1.1-3.79-1.68-5.86-1.68h-.01c-2.96,0-5.75,1.15-7.84,3.25C1.16,5.34,0,8.13,0,11.09c0,2.04.56,4.04,1.62,5.78L.06,20.93c-.09.23-.08.48.02.71.1.22.28.4.51.49.11.04.25.06.34.06.11,0,.21-.02.31-.05l4.21-1.5c5.17,3.07,11.89,1.45,15.08-3.67,1.57-2.51,2.06-5.49,1.39-8.37-.67-2.89-2.42-5.34-4.94-6.9ZM.96,21.27h0s0,0,0,0h0Zm18.74-4.83c-2.95,4.74-9.21,6.2-13.96,3.24l-.2-.12-4.56,1.63,1.71-4.43-.13-.2c-1.05-1.63-1.6-3.52-1.6-5.47,0-2.71,1.05-5.25,2.97-7.16,1.91-1.91,4.46-2.97,7.16-2.97h.01c1.89,0,3.75.53,5.35,1.53,2.3,1.43,3.9,3.67,4.51,6.31s.16,5.35-1.27,7.65Z" />
      <path
        d="m16.36,12.47h0s-1.08-.53-1.75-.88c-.7-.36-1.55-.13-2.41.63-.5-.23-.94-.53-1.33-.9-.38-.4-.69-.85-.91-1.34.76-.87.99-1.72.63-2.41-.28-.55-.69-1.37-.83-1.65l-.05-.1c-.16-.31-.47-.51-.82-.51h-.97c-1.53.27-2.62,1.59-2.61,3.13,0,1.56,1.76,4.35,2.92,5.52,1.16,1.16,3.96,2.92,5.51,2.92h.03c1.54,0,2.84-1.09,3.1-2.61v-.97c0-.35-.19-.67-.51-.83Zm-.45,1.67c-.2,1.03-1.09,1.77-2.15,1.77-1.17.01-3.81-1.59-4.86-2.64-1.04-1.04-2.64-3.63-2.64-4.84-.01-1.07.74-1.97,1.78-2.17l.8-.02h0c.09.2.31.65.88,1.77.27.52-.45,1.31-.68,1.54l-.22.22.11.29c.28.72.69,1.38,1.24,1.95.56.54,1.21.95,1.94,1.23l.29.11.22-.22c.23-.23,1.02-.95,1.53-.68.63.33,1.59.8,1.75.88v.82Z" />
    </g>
  </g>
</svg>
